<svg width="120" height="140" viewBox="0 0 120 140" fill="none" xmlns="http://www.w3.org/2000/svg" role="img" aria-label="ШУТИС">
  <defs>
    <linearGradient id="shieldNavy" x1="60" y1="6" x2="60" y2="134" gradientUnits="userSpaceOnUse">
      <stop offset="0" stop-color="#1c3aa0"/>
      <stop offset="1" stop-color="#001a66"/>
    </linearGradient>
  </defs>
  <!-- Shield -->
  <path d="M60 4 L112 20 V70 C112 104 90 124 60 136 C30 124 8 104 8 70 V20 Z"
        fill="#f4b400" />
  <path d="M60 12 L104 25 V70 C104 100 85 117 60 128 C35 117 16 100 16 70 V25 Z"
        fill="url(#shieldNavy)" stroke="#f4b400" stroke-width="1.5"/>
  <!-- Wordmark -->
  <text x="60" y="36" text-anchor="middle" font-family="Arial, sans-serif" font-size="18"
        font-weight="800" letter-spacing="1.5" fill="#ffffff">ШУТИС</text>
  <!-- Gear ring -->
  <g transform="translate(60 78)" stroke="#f4b400" stroke-width="2.4" fill="none">
    <circle r="22"/>
    <g>
      <line x1="0" y1="-22" x2="0" y2="-28"/>
      <line x1="0" y1="22" x2="0" y2="28"/>
      <line x1="-22" y1="0" x2="-28" y2="0"/>
      <line x1="22" y1="0" x2="28" y2="0"/>
      <line x1="-15.6" y1="-15.6" x2="-19.8" y2="-19.8"/>
      <line x1="15.6" y1="-15.6" x2="19.8" y2="-19.8"/>
      <line x1="-15.6" y1="15.6" x2="-19.8" y2="19.8"/>
      <line x1="15.6" y1="15.6" x2="19.8" y2="19.8"/>
    </g>
  </g>
  <!-- Atom -->
  <g transform="translate(60 78)" stroke="#ffffff" stroke-width="2" fill="none">
    <ellipse rx="14" ry="6"/>
    <ellipse rx="14" ry="6" transform="rotate(60)"/>
    <ellipse rx="14" ry="6" transform="rotate(120)"/>
    <circle r="3.2" fill="#f4b400" stroke="none"/>
  </g>
</svg>
